<svg width="221" height="55" viewBox="0 0 221 55" fill="none" xmlns="http://www.w3.org/2000/svg">
<g filter="url(#filter0_d)">
<path d="M104.064 40L104.048 31.84L100 38.64H99.264L95.216 31.888V40H93.68V28.8H94.992L99.664 36.672L104.272 28.8H105.584L105.6 40H104.064ZM112.529 40.096C111.687 40.096 110.929 39.9093 110.257 39.536C109.585 39.1627 109.057 38.6507 108.673 38C108.3 37.3387 108.113 36.592 108.113 35.76C108.113 34.928 108.3 34.1867 108.673 33.536C109.057 32.8747 109.585 32.3627 110.257 32C110.929 31.6267 111.687 31.44 112.529 31.44C113.372 31.44 114.124 31.6267 114.785 32C115.457 32.3627 115.98 32.8747 116.353 33.536C116.737 34.1867 116.929 34.928 116.929 35.76C116.929 36.592 116.737 37.3387 116.353 38C115.98 38.6507 115.457 39.1627 114.785 39.536C114.124 39.9093 113.372 40.096 112.529 40.096ZM112.529 38.752C113.073 38.752 113.559 38.6293 113.985 38.384C114.423 38.128 114.764 37.776 115.009 37.328C115.255 36.8693 115.377 36.3467 115.377 35.76C115.377 35.1733 115.255 34.656 115.009 34.208C114.764 33.7493 114.423 33.3973 113.985 33.152C113.559 32.9067 113.073 32.784 112.529 32.784C111.985 32.784 111.495 32.9067 111.057 33.152C110.631 33.3973 110.289 33.7493 110.033 34.208C109.788 34.656 109.665 35.1733 109.665 35.76C109.665 36.3467 109.788 36.8693 110.033 37.328C110.289 37.776 110.631 38.128 111.057 38.384C111.495 38.6293 111.985 38.752 112.529 38.752ZM123.982 39.504C123.758 39.696 123.48 39.8453 123.149 39.952C122.819 40.048 122.477 40.096 122.125 40.096C121.272 40.096 120.611 39.8667 120.141 39.408C119.672 38.9493 119.437 38.2933 119.437 37.44V32.784H117.997V31.52H119.437V29.664H120.973V31.52H123.405V32.784H120.973V37.376C120.973 37.8347 121.085 38.1867 121.309 38.432C121.544 38.6773 121.875 38.8 122.301 38.8C122.771 38.8 123.171 38.6667 123.502 38.4L123.982 39.504ZM129.349 40.096C128.507 40.096 127.749 39.9093 127.077 39.536C126.405 39.1627 125.877 38.6507 125.493 38C125.12 37.3387 124.933 36.592 124.933 35.76C124.933 34.928 125.12 34.1867 125.493 33.536C125.877 32.8747 126.405 32.3627 127.077 32C127.749 31.6267 128.507 31.44 129.349 31.44C130.192 31.44 130.944 31.6267 131.605 32C132.277 32.3627 132.8 32.8747 133.173 33.536C133.557 34.1867 133.749 34.928 133.749 35.76C133.749 36.592 133.557 37.3387 133.173 38C132.8 38.6507 132.277 39.1627 131.605 39.536C130.944 39.9093 130.192 40.096 129.349 40.096ZM129.349 38.752C129.893 38.752 130.379 38.6293 130.805 38.384C131.243 38.128 131.584 37.776 131.829 37.328C132.075 36.8693 132.197 36.3467 132.197 35.76C132.197 35.1733 132.075 34.656 131.829 34.208C131.584 33.7493 131.243 33.3973 130.805 33.152C130.379 32.9067 129.893 32.784 129.349 32.784C128.805 32.784 128.315 32.9067 127.877 33.152C127.451 33.3973 127.109 33.7493 126.853 34.208C126.608 34.656 126.485 35.1733 126.485 35.76C126.485 36.3467 126.608 36.8693 126.853 37.328C127.109 37.776 127.451 38.128 127.877 38.384C128.315 38.6293 128.805 38.752 129.349 38.752ZM137.505 32.944C137.772 32.4533 138.167 32.08 138.689 31.824C139.212 31.568 139.847 31.44 140.593 31.44V32.928C140.508 32.9173 140.391 32.912 140.241 32.912C139.409 32.912 138.753 33.1627 138.273 33.664C137.804 34.1547 137.569 34.8587 137.569 35.776V40H136.033V31.52H137.505V32.944ZM145.141 40.096C144.448 40.096 143.781 40.0053 143.141 39.824C142.501 39.632 142 39.392 141.637 39.104L142.277 37.888C142.65 38.1547 143.104 38.368 143.637 38.528C144.17 38.688 144.709 38.768 145.253 38.768C146.597 38.768 147.269 38.384 147.269 37.616C147.269 37.36 147.178 37.1573 146.997 37.008C146.816 36.8587 146.586 36.752 146.309 36.688C146.042 36.6133 145.658 36.5333 145.157 36.448C144.474 36.3413 143.914 36.2187 143.477 36.08C143.05 35.9413 142.682 35.7067 142.373 35.376C142.064 35.0453 141.909 34.5813 141.909 33.984C141.909 33.216 142.229 32.6027 142.869 32.144C143.509 31.6747 144.368 31.44 145.445 31.44C146.01 31.44 146.576 31.5093 147.141 31.648C147.706 31.7867 148.17 31.9733 148.533 32.208L147.877 33.424C147.184 32.976 146.368 32.752 145.429 32.752C144.778 32.752 144.282 32.8587 143.941 33.072C143.6 33.2853 143.429 33.568 143.429 33.92C143.429 34.1973 143.525 34.416 143.717 34.576C143.909 34.736 144.144 34.8533 144.421 34.928C144.709 35.0027 145.109 35.088 145.621 35.184C146.304 35.3013 146.853 35.4293 147.269 35.568C147.696 35.696 148.058 35.92 148.357 36.24C148.656 36.56 148.805 37.008 148.805 37.584C148.805 38.352 148.474 38.9653 147.813 39.424C147.162 39.872 146.272 40.096 145.141 40.096ZM163.054 40L160.638 36.56C160.339 36.5813 160.104 36.592 159.934 36.592H157.166V40H155.566V28.8H159.934C161.384 28.8 162.526 29.1467 163.358 29.84C164.19 30.5333 164.606 31.488 164.606 32.704C164.606 33.568 164.392 34.304 163.966 34.912C163.539 35.52 162.931 35.9627 162.142 36.24L164.798 40H163.054ZM159.886 35.232C160.899 35.232 161.672 35.0133 162.206 34.576C162.739 34.1387 163.006 33.5147 163.006 32.704C163.006 31.8933 162.739 31.2747 162.206 30.848C161.672 30.4107 160.899 30.192 159.886 30.192H157.166V35.232H159.886ZM174.791 35.808C174.791 35.9253 174.78 36.08 174.759 36.272H167.879C167.975 37.0187 168.3 37.6213 168.855 38.08C169.42 38.528 170.119 38.752 170.951 38.752C171.964 38.752 172.78 38.4107 173.399 37.728L174.247 38.72C173.863 39.168 173.383 39.5093 172.807 39.744C172.241 39.9787 171.607 40.096 170.903 40.096C170.007 40.096 169.212 39.9147 168.519 39.552C167.825 39.1787 167.287 38.6613 166.903 38C166.529 37.3387 166.343 36.592 166.343 35.76C166.343 34.9387 166.524 34.1973 166.887 33.536C167.26 32.8747 167.767 32.3627 168.407 32C169.057 31.6267 169.788 31.44 170.599 31.44C171.409 31.44 172.129 31.6267 172.759 32C173.399 32.3627 173.895 32.8747 174.247 33.536C174.609 34.1973 174.791 34.9547 174.791 35.808ZM170.599 32.736C169.863 32.736 169.244 32.96 168.743 33.408C168.252 33.856 167.964 34.4427 167.879 35.168H173.319C173.233 34.4533 172.94 33.872 172.439 33.424C171.948 32.9653 171.335 32.736 170.599 32.736ZM181.612 31.44C182.689 31.44 183.542 31.7547 184.172 32.384C184.812 33.0027 185.132 33.9147 185.132 35.12V40H183.596V35.296C183.596 34.4747 183.398 33.856 183.004 33.44C182.609 33.024 182.044 32.816 181.308 32.816C180.476 32.816 179.82 33.0613 179.34 33.552C178.86 34.032 178.62 34.7253 178.62 35.632V40H177.084V31.52H178.556V32.8C178.865 32.3627 179.281 32.0267 179.804 31.792C180.337 31.5573 180.94 31.44 181.612 31.44ZM192.902 39.504C192.678 39.696 192.401 39.8453 192.07 39.952C191.739 40.048 191.398 40.096 191.046 40.096C190.193 40.096 189.531 39.8667 189.062 39.408C188.593 38.9493 188.358 38.2933 188.358 37.44V32.784H186.918V31.52H188.358V29.664H189.894V31.52H192.326V32.784H189.894V37.376C189.894 37.8347 190.006 38.1867 190.23 38.432C190.465 38.6773 190.795 38.8 191.222 38.8C191.691 38.8 192.091 38.6667 192.422 38.4L192.902 39.504ZM198.007 31.44C199.18 31.44 200.076 31.728 200.695 32.304C201.324 32.88 201.639 33.7387 201.639 34.88V40H200.183V38.88C199.927 39.2747 199.559 39.5787 199.079 39.792C198.61 39.9947 198.05 40.096 197.399 40.096C196.45 40.096 195.687 39.8667 195.111 39.408C194.546 38.9493 194.263 38.3467 194.263 37.6C194.263 36.8533 194.535 36.256 195.079 35.808C195.623 35.3493 196.487 35.12 197.671 35.12H200.103V34.816C200.103 34.1547 199.911 33.648 199.527 33.296C199.143 32.944 198.578 32.768 197.831 32.768C197.33 32.768 196.839 32.8533 196.359 33.024C195.879 33.184 195.474 33.4027 195.143 33.68L194.503 32.528C194.94 32.176 195.463 31.9093 196.071 31.728C196.679 31.536 197.324 31.44 198.007 31.44ZM197.655 38.912C198.242 38.912 198.748 38.784 199.175 38.528C199.602 38.2613 199.911 37.888 200.103 37.408V36.224H197.735C196.434 36.224 195.783 36.6613 195.783 37.536C195.783 37.9627 195.948 38.2987 196.279 38.544C196.61 38.7893 197.068 38.912 197.655 38.912ZM204.642 28.128H206.178V40H204.642V28.128ZM211.702 40.096C211.009 40.096 210.342 40.0053 209.702 39.824C209.062 39.632 208.561 39.392 208.198 39.104L208.838 37.888C209.212 38.1547 209.665 38.368 210.198 38.528C210.732 38.688 211.27 38.768 211.814 38.768C213.158 38.768 213.83 38.384 213.83 37.616C213.83 37.36 213.74 37.1573 213.558 37.008C213.377 36.8587 213.148 36.752 212.87 36.688C212.604 36.6133 212.22 36.5333 211.718 36.448C211.036 36.3413 210.476 36.2187 210.038 36.08C209.612 35.9413 209.244 35.7067 208.934 35.376C208.625 35.0453 208.47 34.5813 208.47 33.984C208.47 33.216 208.79 32.6027 209.43 32.144C210.07 31.6747 210.929 31.44 212.006 31.44C212.572 31.44 213.137 31.5093 213.702 31.648C214.268 31.7867 214.732 31.9733 215.094 32.208L214.438 33.424C213.745 32.976 212.929 32.752 211.99 32.752C211.34 32.752 210.844 32.8587 210.502 33.072C210.161 33.2853 209.99 33.568 209.99 33.92C209.99 34.1973 210.086 34.416 210.278 34.576C210.47 34.736 210.705 34.8533 210.982 34.928C211.27 35.0027 211.67 35.088 212.182 35.184C212.865 35.3013 213.414 35.4293 213.83 35.568C214.257 35.696 214.62 35.92 214.918 36.24C215.217 36.56 215.366 37.008 215.366 37.584C215.366 38.352 215.036 38.9653 214.374 39.424C213.724 39.872 212.833 40.096 211.702 40.096Z" fill="#7A7363"/>
<path d="M98.573 21.252C97.411 21.252 96.284 21.098 95.192 20.79C94.114 20.468 93.246 20.055 92.588 19.551L93.743 16.989C94.373 17.451 95.122 17.822 95.99 18.102C96.858 18.382 97.726 18.522 98.594 18.522C99.56 18.522 100.274 18.382 100.736 18.102C101.198 17.808 101.429 17.423 101.429 16.947C101.429 16.597 101.289 16.31 101.009 16.086C100.743 15.848 100.393 15.659 99.959 15.519C99.539 15.379 98.965 15.225 98.237 15.057C97.117 14.791 96.2 14.525 95.486 14.259C94.772 13.993 94.156 13.566 93.638 12.978C93.134 12.39 92.882 11.606 92.882 10.626C92.882 9.772 93.113 9.002 93.575 8.316C94.037 7.616 94.73 7.063 95.654 6.657C96.592 6.251 97.733 6.048 99.077 6.048C100.015 6.048 100.932 6.16 101.828 6.384C102.724 6.608 103.508 6.93 104.18 7.35L103.13 9.933C101.772 9.163 100.414 8.778 99.056 8.778C98.104 8.778 97.397 8.932 96.935 9.24C96.487 9.548 96.263 9.954 96.263 10.458C96.263 10.962 96.522 11.34 97.04 11.592C97.572 11.83 98.377 12.068 99.455 12.306C100.575 12.572 101.492 12.838 102.206 13.104C102.92 13.37 103.529 13.79 104.033 14.364C104.551 14.938 104.81 15.715 104.81 16.695C104.81 17.535 104.572 18.305 104.096 19.005C103.634 19.691 102.934 20.237 101.996 20.643C101.058 21.049 99.917 21.252 98.573 21.252ZM116.127 9.072H111.423V6.3H124.233V9.072H119.529V21H116.127V9.072ZM136.841 21.252C135.679 21.252 134.552 21.098 133.46 20.79C132.382 20.468 131.514 20.055 130.856 19.551L132.011 16.989C132.641 17.451 133.39 17.822 134.258 18.102C135.126 18.382 135.994 18.522 136.862 18.522C137.828 18.522 138.542 18.382 139.004 18.102C139.466 17.808 139.697 17.423 139.697 16.947C139.697 16.597 139.557 16.31 139.277 16.086C139.011 15.848 138.661 15.659 138.227 15.519C137.807 15.379 137.233 15.225 136.505 15.057C135.385 14.791 134.468 14.525 133.754 14.259C133.04 13.993 132.424 13.566 131.906 12.978C131.402 12.39 131.15 11.606 131.15 10.626C131.15 9.772 131.381 9.002 131.843 8.316C132.305 7.616 132.998 7.063 133.922 6.657C134.86 6.251 136.001 6.048 137.345 6.048C138.283 6.048 139.2 6.16 140.096 6.384C140.992 6.608 141.776 6.93 142.448 7.35L141.398 9.933C140.04 9.163 138.682 8.778 137.324 8.778C136.372 8.778 135.665 8.932 135.203 9.24C134.755 9.548 134.531 9.954 134.531 10.458C134.531 10.962 134.79 11.34 135.308 11.592C135.84 11.83 136.645 12.068 137.723 12.306C138.843 12.572 139.76 12.838 140.474 13.104C141.188 13.37 141.797 13.79 142.301 14.364C142.819 14.938 143.078 15.715 143.078 16.695C143.078 17.535 142.84 18.305 142.364 19.005C141.902 19.691 141.202 20.237 140.264 20.643C139.326 21.049 138.185 21.252 136.841 21.252ZM150.547 21.168C149.357 21.168 148.286 20.923 147.334 20.433C146.396 19.929 145.661 19.236 145.129 18.354C144.597 17.472 144.331 16.471 144.331 15.351C144.331 14.231 144.597 13.23 145.129 12.348C145.661 11.466 146.396 10.78 147.334 10.29C148.286 9.786 149.357 9.534 150.547 9.534C151.737 9.534 152.801 9.786 153.739 10.29C154.677 10.78 155.412 11.466 155.944 12.348C156.476 13.23 156.742 14.231 156.742 15.351C156.742 16.471 156.476 17.472 155.944 18.354C155.412 19.236 154.677 19.929 153.739 20.433C152.801 20.923 151.737 21.168 150.547 21.168ZM150.547 18.48C151.387 18.48 152.073 18.2 152.605 17.64C153.151 17.066 153.424 16.303 153.424 15.351C153.424 14.399 153.151 13.643 152.605 13.083C152.073 12.509 151.387 12.222 150.547 12.222C149.707 12.222 149.014 12.509 148.468 13.083C147.922 13.643 147.649 14.399 147.649 15.351C147.649 16.303 147.922 17.066 148.468 17.64C149.014 18.2 149.707 18.48 150.547 18.48ZM158.932 5.418H162.208V21H158.932V5.418ZM170.624 21.168C169.434 21.168 168.363 20.923 167.411 20.433C166.473 19.929 165.738 19.236 165.206 18.354C164.674 17.472 164.408 16.471 164.408 15.351C164.408 14.231 164.674 13.23 165.206 12.348C165.738 11.466 166.473 10.78 167.411 10.29C168.363 9.786 169.434 9.534 170.624 9.534C171.814 9.534 172.878 9.786 173.816 10.29C174.754 10.78 175.489 11.466 176.021 12.348C176.553 13.23 176.819 14.231 176.819 15.351C176.819 16.471 176.553 17.472 176.021 18.354C175.489 19.236 174.754 19.929 173.816 20.433C172.878 20.923 171.814 21.168 170.624 21.168ZM170.624 18.48C171.464 18.48 172.15 18.2 172.682 17.64C173.228 17.066 173.501 16.303 173.501 15.351C173.501 14.399 173.228 13.643 172.682 13.083C172.15 12.509 171.464 12.222 170.624 12.222C169.784 12.222 169.091 12.509 168.545 13.083C167.999 13.643 167.726 14.399 167.726 15.351C167.726 16.303 167.999 17.066 168.545 17.64C169.091 18.2 169.784 18.48 170.624 18.48ZM185.876 9.534C187.276 9.534 188.403 9.954 189.257 10.794C190.125 11.634 190.559 12.88 190.559 14.532V21H187.283V15.036C187.283 14.14 187.087 13.475 186.695 13.041C186.303 12.593 185.736 12.369 184.994 12.369C184.168 12.369 183.51 12.628 183.02 13.146C182.53 13.65 182.285 14.406 182.285 15.414V21H179.009V9.702H182.138V11.025C182.572 10.549 183.111 10.185 183.755 9.933C184.399 9.667 185.106 9.534 185.876 9.534ZM199.028 21.168C197.838 21.168 196.767 20.923 195.815 20.433C194.877 19.929 194.142 19.236 193.61 18.354C193.078 17.472 192.812 16.471 192.812 15.351C192.812 14.231 193.078 13.23 193.61 12.348C194.142 11.466 194.877 10.78 195.815 10.29C196.767 9.786 197.838 9.534 199.028 9.534C200.218 9.534 201.282 9.786 202.22 10.29C203.158 10.78 203.893 11.466 204.425 12.348C204.957 13.23 205.223 14.231 205.223 15.351C205.223 16.471 204.957 17.472 204.425 18.354C203.893 19.236 203.158 19.929 202.22 20.433C201.282 20.923 200.218 21.168 199.028 21.168ZM199.028 18.48C199.868 18.48 200.554 18.2 201.086 17.64C201.632 17.066 201.905 16.303 201.905 15.351C201.905 14.399 201.632 13.643 201.086 13.083C200.554 12.509 199.868 12.222 199.028 12.222C198.188 12.222 197.495 12.509 196.949 13.083C196.403 13.643 196.13 14.399 196.13 15.351C196.13 16.303 196.403 17.066 196.949 17.64C197.495 18.2 198.188 18.48 199.028 18.48ZM211.213 21.168C210.275 21.168 209.358 21.056 208.462 20.832C207.566 20.594 206.852 20.3 206.32 19.95L207.412 17.598C207.916 17.92 208.525 18.186 209.239 18.396C209.953 18.592 210.653 18.69 211.339 18.69C212.725 18.69 213.418 18.347 213.418 17.661C213.418 17.339 213.229 17.108 212.851 16.968C212.473 16.828 211.892 16.709 211.108 16.611C210.184 16.471 209.421 16.31 208.819 16.128C208.217 15.946 207.692 15.624 207.244 15.162C206.81 14.7 206.593 14.042 206.593 13.188C206.593 12.474 206.796 11.844 207.202 11.298C207.622 10.738 208.224 10.304 209.008 9.996C209.806 9.688 210.744 9.534 211.822 9.534C212.62 9.534 213.411 9.625 214.195 9.807C214.993 9.975 215.651 10.213 216.169 10.521L215.077 12.852C214.083 12.292 212.998 12.012 211.822 12.012C211.122 12.012 210.597 12.11 210.247 12.306C209.897 12.502 209.722 12.754 209.722 13.062C209.722 13.412 209.911 13.657 210.289 13.797C210.667 13.937 211.269 14.07 212.095 14.196C213.019 14.35 213.775 14.518 214.363 14.7C214.951 14.868 215.462 15.183 215.896 15.645C216.33 16.107 216.547 16.751 216.547 17.577C216.547 18.277 216.337 18.9 215.917 19.446C215.497 19.992 214.881 20.419 214.069 20.727C213.271 21.021 212.319 21.168 211.213 21.168Z" fill="#414141"/>
<path fill-rule="evenodd" clip-rule="evenodd" d="M64.6632 1.25923C63.3139 1.48659 62.366 1.89398 62.366 2.24644C62.366 2.6319 60.3522 6.89656 60.0723 7.10361C59.673 7.39914 59.4736 7.39062 59.4736 7.07805C59.4736 6.37494 56.1452 5.74001 54.069 6.04678C52.0854 6.33977 50.2222 6.96074 50.1172 7.3636C49.9247 8.1017 49.3175 7.55343 47.6354 5.12249C46.8539 3.9935 46.1483 2.99306 46.0673 2.8995C45.9862 2.80595 45.0039 2.66997 43.8842 2.59727C42.7645 2.52474 41.1706 2.40545 40.3423 2.3322L38.8363 2.19912L38.8961 2.72491L38.9559 3.25087L42.1271 3.53407C43.8711 3.68999 45.3916 3.87529 45.5057 3.94618C45.6199 4.01689 46.3179 4.95188 47.0569 6.02376C48.6173 8.28717 48.7787 8.44491 49.5713 8.48153C49.8972 8.4964 50.2237 8.59031 50.2967 8.69003C50.5843 9.08274 50.4236 9.89644 49.9684 10.353C49.5326 10.7901 49.4169 10.8149 48.2059 10.7312C46.4441 10.6093 44.3643 9.87903 41.048 8.21755L38.2593 6.82041L36.4571 8.29914C32.4626 11.577 28.5879 14.7688 28.2085 15.0945C27.6651 15.5608 28.4334 15.082 32.177 12.6198C34.2152 11.2794 36.3832 9.86507 36.9948 9.4769L38.1065 8.77089L40.3342 9.98618C45.7329 12.9313 52.3251 15.8956 55.579 16.8413C58.4615 17.6791 62.6165 18.0619 64.2769 17.6425C65.1743 17.4159 65.9814 16.6198 65.9814 15.9613C65.9814 15.0816 65.3975 13.669 64.4418 12.2371C63.4175 10.7022 61.4415 8.19688 61.3375 8.30131C61.3057 8.33322 61.3681 8.61352 61.4762 8.92446C61.8645 10.0417 61.6067 10.1223 60.6777 9.17466L59.8028 8.28209L60.4814 7.94215C61.0975 7.63357 61.2549 7.385 62.1899 5.24523C62.8889 3.64521 63.3488 2.82209 63.622 2.6823C63.8434 2.56916 64.7901 2.371 65.726 2.24209C67.4171 2.00929 67.4276 2.00476 67.4276 1.4962C67.4276 1.02245 67.3773 0.986006 66.7497 1.00323C66.3769 1.01338 65.438 1.12851 64.6632 1.25923ZM15.5459 8.62458C15.5459 9.07984 20.5642 14.7638 20.966 14.7638C21.0345 14.7638 21.1038 14.4171 21.1199 13.9932C21.1566 13.029 21.5779 12.4345 22.6067 11.8953C23.2958 11.534 23.6082 11.4849 24.8107 11.5479C25.5815 11.5886 26.1916 11.6047 26.1665 11.5838C25.8897 11.3534 19.5763 9.20023 18.1886 8.863C16.1651 8.3713 15.5459 8.31546 15.5459 8.62458ZM59.9573 9.55141C61.1788 10.8467 61.8652 11.926 61.7929 12.4376C61.7412 12.804 61.6174 12.8675 60.8594 12.9159C60.3787 12.9467 59.0772 12.7988 57.967 12.5872C56.0102 12.2144 51.9171 11.2341 51.7915 11.1083C51.7364 11.053 51.6481 9.07857 51.6856 8.73536C51.6937 8.66066 53.3563 8.59938 55.38 8.59938H59.0596L59.9573 9.55141ZM15.2571 11.1188C14.6414 11.4956 13.3767 12.7404 13.3767 12.9699C13.3767 13.0497 13.663 13.1942 14.0128 13.2912C14.8561 13.5247 16.6515 14.542 18.0892 15.6012C18.7286 16.0722 19.1297 16.3068 18.9806 16.1226C18.4105 15.4183 16.9213 14.1009 15.938 13.4312C15.3744 13.0472 14.9132 12.6608 14.9132 12.5727C14.9132 12.4846 15.2692 12.044 15.7043 11.5936C16.3216 10.9549 16.4209 10.7752 16.1562 10.7758C15.9697 10.7761 15.5651 10.9304 15.2571 11.1188ZM11.117 14.7638C7.76658 16.1259 5.22511 20.247 4.25364 25.8925C4.10124 26.7781 3.98754 27.7164 4.0011 27.9775L4.02568 28.4523L4.10468 27.999C5.41799 20.4633 9.92464 16.0169 14.1489 18.0898C15.6224 18.8129 17.1619 20.5494 18.1677 22.623C20.8876 28.2308 20.8818 36.2501 18.1536 41.9516C17.2436 43.8533 17.4591 43.8306 18.9285 41.87C21.1546 38.9 22.4138 34.6743 22.4138 30.1747C22.4138 24.9435 20.6168 19.7306 17.8125 16.8268C16.2683 15.2279 15.0503 14.6015 13.2483 14.4795C12.2926 14.4146 11.8209 14.4775 11.117 14.7638ZM40.0973 15.1282C36.1296 15.7593 32.7739 17.5339 30.0791 20.4261C28.9366 21.6521 27.5375 23.7445 27.0156 25.0075C26.6647 25.8562 26.731 25.8118 27.5604 24.6416C30.7619 20.1255 36.0188 17.576 41.4528 17.9036C43.7945 18.045 45.2136 18.4078 47.3532 19.4124C51.7526 21.478 54.7788 25.1585 56.0628 30.0056C56.6161 32.0942 56.6156 35.5812 56.0615 37.6989C55.237 40.8509 53.1289 44.2116 50.8077 46.0745C50.2168 46.5488 49.7603 46.9638 49.7932 46.9969C49.8263 47.0299 50.2893 46.7921 50.822 46.4681C56.6926 42.8991 59.8823 36.5793 59.109 30.0487C58.6668 26.3142 57.1715 23.0547 54.6943 20.4261C51.4424 16.9755 47.6985 15.2498 43.0233 15.0471C41.9794 15.0018 40.6626 15.0383 40.0973 15.1282ZM70.5007 16.0193C69.9539 16.0964 69.0184 16.3005 68.4218 16.4731C67.3406 16.7859 65.2053 17.6721 65.3012 17.7682C65.329 17.7959 65.8391 17.7038 66.4348 17.5633C68.0538 17.1813 71.0573 17.2288 72.7766 17.6636C79.0107 19.2398 83.3386 24.7707 83.3343 31.1556C83.3296 38.041 78.7347 43.6283 71.9469 45.0026L70.4103 45.3137L71.8565 45.3719C74.6086 45.4829 77.6188 44.7096 79.9395 43.2958C82.2408 41.8937 84.5351 39.315 85.6972 36.8246C87.4646 33.0361 87.4315 28.1755 85.6118 24.3296C83.7614 20.419 80.1905 17.4692 76.0038 16.3935C74.4809 16.0021 71.8795 15.8253 70.5007 16.0193ZM8.81325 22.3106C8.89135 22.4975 9.78617 24.2997 10.8019 26.3153L12.6487 29.98L12.2083 30.4566L11.768 30.9333L9.7502 26.8826C8.64026 24.6547 7.69988 22.797 7.66029 22.7544C7.47084 22.5508 6.4173 23.8729 5.86504 25.0075C5.02174 26.7402 4.6911 28.1098 4.57378 30.356C4.48683 32.0222 4.71189 34.6499 4.97871 35.0828C5.02644 35.1602 6.54908 34.3737 8.36241 33.335L11.6593 31.4464L11.8112 32.0344C11.8947 32.3578 12.0388 32.7143 12.1313 32.8268C12.2488 32.9695 11.3023 33.5956 8.99674 34.9001C7.18016 35.9279 5.65571 36.7989 5.60889 36.8355C5.44836 36.9617 6.37301 38.507 6.99071 39.145C9.78473 42.0304 13.0708 39.7578 14.2023 34.1573C14.5699 32.3371 14.4721 28.9121 14.0034 27.1953C13.5578 25.5632 12.6966 23.9407 11.8645 23.1656L11.117 22.4692L11.7763 23.1945C13.0694 24.6172 13.9698 27.1273 14.1986 29.9472L14.3125 31.3532L13.9673 30.8093C13.7695 30.498 13.5287 29.5931 13.4041 28.6934C13.065 26.2453 12.2973 24.2908 11.1611 22.9827C10.8386 22.6114 10.6967 22.3762 10.8459 22.4604C11.063 22.5826 11.0733 22.5657 10.8974 22.3753C10.7766 22.2446 10.2264 22.0999 9.67463 22.054C8.74854 21.977 8.68237 21.9968 8.81325 22.3106ZM43.0438 22.8095C46.2704 23.9518 48.6486 26.6231 49.5356 30.1015C50.4688 33.7609 49.5347 37.3432 46.9275 40.1041C41.9528 45.3719 33.6304 43.6363 30.8029 36.7414C30.308 35.5343 30.2471 35.6752 30.6578 37.0766C32.6018 43.7106 39.7409 46.9772 45.8638 44.0344C47.5976 43.2011 49.8661 41.0144 50.7452 39.3294C52.4302 36.0989 52.5231 31.9354 50.9824 28.7003C49.5602 25.7144 46.8837 23.4659 43.7963 22.6634C42.1522 22.2363 41.6822 22.3275 43.0438 22.8095ZM69.248 23.5618C69.2333 25.0275 68.9417 27.588 68.6736 28.6033C68.5191 29.1891 68.3587 29.3567 67.6535 29.6694C66.6336 30.122 64.881 30.2844 63.898 30.0177C63.2454 29.8404 63.1454 29.7354 62.9287 28.9993C62.569 27.7773 61.0212 25.2889 59.8086 23.9831L58.7395 22.8318L59.2196 23.8227C60.3995 26.2571 60.9145 28.0826 60.942 29.9278L60.9599 31.1182L62.3408 31.7796C63.631 32.3975 63.8345 32.441 65.4391 32.4396C67.016 32.4383 67.2651 32.3874 68.4847 31.8153C69.4244 31.3748 69.8637 31.0591 69.9857 30.7371C70.2131 30.1374 70.2071 25.8007 69.9775 24.6449C69.8785 24.1463 69.6766 23.412 69.5291 23.0132L69.2608 22.2879L69.248 23.5618ZM73.8828 23.5233C75.0169 24.7457 76.0267 26.5515 76.487 28.1804C76.6137 28.6291 76.7175 29.9345 76.7175 31.0812C76.7175 32.228 76.6137 33.5334 76.487 33.9821C76.0267 35.611 75.0169 37.4168 73.8828 38.6391L72.7604 39.8484L73.7036 39.3373C76.0092 38.0878 77.8813 35.3017 78.307 32.4864C78.8788 28.7054 76.9127 24.5486 73.7468 22.8449L72.7604 22.314L73.8828 23.5233ZM13.2044 23.6925C16.0427 28.0647 15.6625 36.0699 12.4585 39.3968C9.50796 42.4605 5.80593 40.4658 4.32323 35.0136C3.99983 33.824 3.97796 33.7894 4.07286 34.6167C4.35921 37.1105 5.43444 39.7587 6.73546 41.1741C9.75815 44.4632 13.5743 42.4779 15.2278 36.7559C15.5834 35.5252 15.636 34.9305 15.634 32.1691C15.632 29.6685 15.5622 28.7466 15.3044 27.8177C14.8778 26.2806 13.9043 24.2649 13.2029 23.4664L12.6456 22.8318L13.2044 23.6925ZM64.8064 23.6526C63.2156 23.8283 61.7107 24.0031 61.4621 24.041C61.2135 24.079 61.9316 24.2627 63.0576 24.4495L65.1052 24.7889L66.4923 24.1893C67.9173 23.5736 68.4301 23.2661 67.9609 23.3092C67.8166 23.3223 66.3972 23.4769 64.8064 23.6526ZM39.6017 24.0408C39.724 24.2734 40.666 25.9532 41.6948 27.7739C42.7238 29.5945 43.5656 31.1244 43.5656 31.1733C43.5656 31.2225 43.455 31.2625 43.3198 31.2625C43.1844 31.2625 42.7666 31.4716 42.391 31.7272C42.0155 31.9827 41.648 32.1256 41.5741 32.0445C41.5001 31.9635 40.4795 30.1838 39.3059 28.0897C38.1324 25.9956 37.147 24.2487 37.116 24.208C36.9902 24.0404 35.6267 24.5853 34.7895 25.1373C32.1627 26.8699 30.55 29.8077 30.55 32.8609C30.55 34.0003 30.9765 36.0992 31.2697 36.4031C31.3863 36.524 38.4503 34.2323 40.8812 33.285C41.3376 33.1071 41.3662 33.1302 41.4821 33.7669C41.5491 34.1346 41.7227 34.6205 41.868 34.8466C42.0775 35.1728 42.084 35.2748 41.8998 35.3403C41.772 35.3858 39.6425 36.1166 37.1676 36.9646C34.6924 37.8126 32.6376 38.5363 32.6011 38.573C32.5644 38.6096 32.9691 39.052 33.5006 39.556C35.1868 41.1555 37.252 41.9603 39.6667 41.9585C40.4688 41.9579 41.4304 41.8725 41.8031 41.7686L42.481 41.5799V38.4999C42.481 35.4221 42.4814 35.4199 42.8626 35.6246C43.0725 35.7373 43.5584 35.7993 43.9424 35.7627L44.6407 35.6958L44.6906 38.126L44.7407 40.5563L45.6971 39.6932C46.6981 38.7902 47.4318 37.802 47.9514 36.6566L48.2596 35.977L46.902 35.5763C45.8269 35.2591 45.5693 35.1176 45.6644 34.8963C45.7306 34.7425 45.8716 34.2903 45.978 33.8915C46.0843 33.4926 46.1892 33.1383 46.2109 33.1041C46.2481 33.0457 47.9273 33.5008 48.5302 33.7326C48.7534 33.8186 48.808 33.6873 48.808 33.0645C48.808 32.0583 48.4487 29.9934 48.2735 29.9934C48.1987 29.9934 47.6301 30.566 47.0101 31.2658L45.8824 32.5382L45.5436 32.1063C45.3573 31.8686 44.9596 31.5724 44.6599 31.4478L44.1148 31.2214L44.8451 30.3809C45.247 29.9183 45.9502 29.1075 46.4083 28.579L47.2407 27.6179L46.2619 26.6213C44.5367 24.8654 42.8711 24.0437 40.433 23.7465L39.3793 23.618L39.6017 24.0408ZM22.1373 24.6902C22.2826 25.2798 22.1828 25.183 23.7711 26.2785L25.0365 27.1513L23.5945 25.6714C22.8014 24.8576 22.1215 24.1916 22.0836 24.1916C22.0456 24.1916 22.0698 24.4161 22.1373 24.6902ZM66.2526 25.4629C65.656 25.5387 64.5314 25.6582 63.7536 25.7287C62.9755 25.7993 62.366 25.8839 62.399 25.9169C62.4319 25.9499 63.1727 26.102 64.0451 26.2547L65.6312 26.5325L66.9361 25.9209C68.3202 25.2722 68.2308 25.2122 66.2526 25.4629ZM22.418 26.2154C22.4196 26.4485 22.4863 26.7428 22.5664 26.8692C22.6881 27.0613 25.2894 28.1804 25.6148 28.1804C25.7422 28.1804 25.2158 27.7748 23.6355 26.6558C22.4831 25.8395 22.4155 25.815 22.418 26.2154ZM65.647 27.3761C64.5184 27.5061 63.5636 27.6441 63.5249 27.6828C63.4862 27.7216 64.0582 27.8475 64.7959 27.9624C66.0768 28.1622 66.1828 28.1508 67.1439 27.7095C68.1293 27.257 68.3772 27.0688 67.9247 27.1163C67.8005 27.1293 66.7754 27.2463 65.647 27.3761ZM14.0768 33.4382C13.7559 35.7714 12.779 37.9902 11.5626 39.1493L10.8014 39.8745L11.4473 38.9591C12.3323 37.7045 12.8132 36.5287 13.1957 34.6841C13.4658 33.3822 14.0188 32.0108 14.1938 32.2088C14.2187 32.2367 14.1659 32.79 14.0768 33.4382Z" fill="#7A7363"/>
<circle cx="109" cy="19" r="1.5" stroke="#7A7363"/>
<circle cx="125" cy="19" r="1.5" stroke="#7A7363"/>
</g>
<defs>
<filter id="filter0_d" x="0" y="0" width="222" height="55" filterUnits="userSpaceOnUse" color-interpolation-filters="sRGB">
<feFlood flood-opacity="0" result="BackgroundImageFix"/>
<feColorMatrix in="SourceAlpha" type="matrix" values="0 0 0 0 0 0 0 0 0 0 0 0 0 0 0 0 0 0 127 0" result="hardAlpha"/>
<feOffset dy="4"/>
<feGaussianBlur stdDeviation="2"/>
<feColorMatrix type="matrix" values="0 0 0 0 1 0 0 0 0 1 0 0 0 0 1 0 0 0 0.25 0"/>
<feBlend mode="normal" in2="BackgroundImageFix" result="effect1_dropShadow"/>
<feBlend mode="normal" in="SourceGraphic" in2="effect1_dropShadow" result="shape"/>
</filter>
</defs>
</svg>
