<svg display="none" xmlns="http://www.w3.org/2000/svg">
    <symbol id="clock" viewBox="0 0 24 24">
        <path d="M21.4877 17.8441C21.0723 17.535 20.4851 17.6213 20.1761 18.0367C20.0061 18.2652 19.8242 18.4893 19.6355 18.7028C19.2926 19.0907 19.329 19.6833 19.7169 20.0262C19.8953 20.1839 20.1168 20.2614 20.3374 20.2614C20.5967 20.2614 20.8549 20.1544 21.0402 19.9448C21.2637 19.6919 21.4791 19.4265 21.6803 19.1559C21.9894 18.7405 21.9032 18.1531 21.4877 17.8441Z"/>
        <path d="M23.0549 13.4477C22.5493 13.3376 22.0496 13.6584 21.9395 14.1643C21.8789 14.4426 21.8057 14.7214 21.7217 14.9931C21.5689 15.4878 21.846 16.0127 22.3406 16.1655C22.4328 16.194 22.526 16.2075 22.6177 16.2075C23.018 16.2075 23.3887 15.9491 23.5131 15.5465C23.6127 15.2241 23.6996 14.8932 23.7715 14.5631C23.8816 14.0572 23.5608 13.5578 23.0549 13.4477Z"/>
        <path d="M16.9756 20.8466C16.7266 20.9856 16.4689 21.1154 16.2096 21.2326C15.7377 21.4456 15.5279 22.0009 15.741 22.4728C15.8976 22.8195 16.2388 23.0247 16.596 23.0247C16.725 23.0247 16.8561 22.9979 16.9813 22.9414C17.289 22.8024 17.5945 22.6485 17.8896 22.4837C18.3417 22.2313 18.5036 21.6602 18.2511 21.2081C17.9988 20.7561 17.4277 20.5943 16.9756 20.8466Z"/>
        <path d="M11.0629 4.5V11.6117L7.62516 15.0494C7.25906 15.4155 7.25906 16.0091 7.62516 16.3752C7.80825 16.5583 8.04811 16.6498 8.28811 16.6498C8.52802 16.6498 8.76797 16.5583 8.95106 16.3752L12.6634 12.6629C12.8392 12.4871 12.9379 12.2486 12.9379 12V4.5C12.9379 3.98222 12.5182 3.5625 12.0004 3.5625C11.4826 3.5625 11.0629 3.98222 11.0629 4.5Z"/>
        <path d="M23.0625 2.01562C22.5447 2.01562 22.125 2.43534 22.125 2.95312V5.55638C19.9429 2.13412 16.1321 0 12 0C8.79469 0 5.78123 1.24823 3.51469 3.51469C1.24823 5.78123 0 8.79469 0 12C0 15.2053 1.24823 18.2188 3.51469 20.4853C5.78123 22.7518 8.79469 24 12 24C12.0079 24 12.0156 23.999 12.0234 23.9988C12.0313 23.999 12.039 24 12.0469 24C12.3848 24 12.726 23.9858 13.0611 23.9577C13.5771 23.9145 13.9603 23.4612 13.9171 22.9453C13.8739 22.4293 13.4212 22.0459 12.9046 22.0893C12.6213 22.113 12.3328 22.125 12.0469 22.125C12.039 22.125 12.0313 22.126 12.0234 22.1262C12.0156 22.126 12.0079 22.125 12 22.125C6.41705 22.125 1.875 17.583 1.875 12C1.875 6.41705 6.41705 1.875 12 1.875C15.598 1.875 18.9074 3.7928 20.7157 6.84375H18.138C17.6202 6.84375 17.2005 7.26347 17.2005 7.78125C17.2005 8.29903 17.6202 8.71875 18.138 8.71875H21C21.5709 8.71875 22.1051 8.5583 22.5599 8.28033C22.5891 8.26364 22.6172 8.24569 22.644 8.22633C23.46 7.68956 24 6.76627 24 5.71875V2.95312C24 2.43534 23.5803 2.01562 23.0625 2.01562Z"/>
    </symbol>
    <symbol id="arrow-ob" viewBox="0 0 24 14">
      <path d="M12.0001 0.159689C12.4302 0.159689 12.8603 0.323922 13.1882 0.651696L23.5077 10.9713C24.1641 11.6277 24.1641 12.692 23.5077 13.3482C22.8515 14.0044 21.7874 14.0044 21.1309 13.3482L12.0001 4.2169L2.86922 13.3479C2.21277 14.0041 1.14877 14.0041 0.492632 13.3479C-0.164141 12.6917 -0.164141 11.6274 0.492632 10.9709L10.8119 0.651377C11.14 0.323549 11.5701 0.159689 12.0001 0.159689Z"/>
    </symbol>
    <symbol id="arrow-g" viewBox="0 0 13 16">
      <path d="M1 1L11 8L1 15" stroke="#7A7363" stroke-width="2" stroke-linecap="round"/>
    </symbol>
    <symbol id="money" viewBox="0 0 407.534 407.534">
      <g>
        <g>
          <g>
            <path d="M406.962,226.838c-0.001-0.002-0.001-0.003-0.002-0.005l-76.944-193.2c-1.633-4.105-6.286-6.109-10.391-4.476
              c-0.003,0.001-0.006,0.002-0.009,0.004L7.464,153.457c-1.273,0.55-2.377,1.428-3.2,2.544C1.668,157.35,0.028,160.02,0,162.945
              v208c0,4.418,3.582,8,8,8h336c4.418,0,8-3.582,8-8v-113.6l50.496-20.112C406.6,235.596,408.599,230.942,406.962,226.838z
              M336,362.945H16v-192h320V362.945z M133.48,154.985l133.952-53.376c11.955,12.566,28.52,19.708,45.864,19.776l13.36,33.6H133.48
              z M352,240.161v-77.216c0-4.418-3.582-8-8-8h-0.128l-16.952-42.576c-0.188-0.355-0.407-0.693-0.656-1.008
              c-0.858-3.853-4.426-6.482-8.36-6.16c-16.138,1.471-31.925-5.327-41.944-18.064c-2.493-3.077-6.875-3.842-10.264-1.792
              c-0.38,0.045-0.757,0.115-1.128,0.208l-163.536,65.12c-1.979,0.776-3.562,2.315-4.392,4.272H46.976l271.136-107.96l71.032,178.36
              L352,240.161z"/>
            <path d="M37.712,308.937c15.532,4.591,27.686,16.73,32.296,32.256c1.011,3.389,4.128,5.711,7.664,5.712
              c0.415-0.026,0.827-0.088,1.232-0.184c0.359,0.102,0.726,0.177,1.096,0.224h192c0.33-0.043,0.656-0.11,0.976-0.2
              c3.997,0.972,8.025-1.479,8.998-5.476c0.003-0.015,0.007-0.029,0.01-0.044c4.598-15.542,16.754-27.698,32.296-32.296
              c3.769-1.152,6.111-4.908,5.488-8.8c0.107-0.388,0.184-0.784,0.232-1.184v-64c-0.047-0.401-0.127-0.797-0.24-1.184
              c0.627-3.893-1.716-7.651-5.488-8.8c-15.542-4.597-27.695-16.758-32.28-32.304c-1.158-3.795-4.951-6.143-8.864-5.488
              c-0.37-0.103-0.747-0.178-1.128-0.224H80c-0.403,0.048-0.802,0.128-1.192,0.24c-3.891-0.62-7.645,1.721-8.8,5.488
              c-4.601,15.539-16.756,27.691-32.296,32.288c-3.769,1.152-6.111,4.908-5.488,8.8c-0.104,0.389-0.179,0.784-0.224,1.184v64
              c0.046,0.376,0.121,0.748,0.224,1.112C31.568,303.974,33.915,307.772,37.712,308.937z M48,238.193
              c16.064-6.452,28.796-19.184,35.248-35.248h185.496c6.455,16.064,19.19,28.796,35.256,35.248v57.504
              c-16.059,6.459-28.789,19.189-35.248,35.248H83.248C76.789,314.886,64.059,302.156,48,295.697V238.193z"/>
            <path d="M176,314.945c26.51,0,48-21.49,48-48c0-26.51-21.49-48-48-48c-26.51,0-48,21.49-48,48
              C128.026,293.444,149.501,314.919,176,314.945z M176,234.945c17.673,0,32,14.327,32,32s-14.327,32-32,32s-32-14.327-32-32
              S158.327,234.945,176,234.945z"/>
            <path d="M88,278.945c6.627,0,12-5.373,12-12c0-6.627-5.373-12-12-12s-12,5.373-12,12C76,273.573,81.373,278.945,88,278.945z
              M88,262.945c2.209,0,4,1.791,4,4c0,2.209-1.791,4-4,4c-2.209,0-4-1.791-4-4C84,264.736,85.791,262.945,88,262.945z"/>
            <path d="M264,278.945c6.627,0,12-5.373,12-12c0-6.627-5.373-12-12-12c-6.627,0-12,5.373-12,12
              C252,273.573,257.373,278.945,264,278.945z M264,262.945c2.209,0,4,1.791,4,4c0,2.209-1.791,4-4,4c-2.209,0-4-1.791-4-4
              C260,264.736,261.791,262.945,264,262.945z"/>
          </g>
        </g>
      </g>
    </symbol>
    <symbol id="calendar" viewBox="0 0 23 24">
      <path fill-rule="evenodd" clip-rule="evenodd" d="M6.42375 0.0821481C6.10624 0.256796 6.04836 0.387294 6.02921 0.971087L6.01213 1.49258L4.37548 1.49343C3.1428 1.49408 2.65454 1.51213 2.39731 1.56653C1.25654 1.80768 0.320724 2.73812 0.0830377 3.86755C-0.0279128 4.39489 -0.027562 21.0931 0.0833885 21.6159C0.20812 22.2033 0.456581 22.6523 0.903641 23.0984C1.3507 23.5444 1.80077 23.7923 2.3895 23.9168C2.91483 24.0278 19.6013 24.0278 20.1266 23.9168C20.7129 23.7928 21.1658 23.5441 21.6065 23.104C22.0452 22.6659 22.2615 22.2899 22.4117 21.704C22.5055 21.338 22.5085 21.0617 22.5085 12.7424C22.5085 4.42314 22.5055 4.1469 22.4117 3.78085C22.2615 3.19501 22.0452 2.81901 21.6065 2.38087C21.3163 2.09102 21.1262 1.95002 20.8476 1.81808C20.2269 1.52398 19.9802 1.49443 18.1361 1.49343L16.4949 1.49258V1.04099C16.4949 0.511693 16.4251 0.306745 16.1874 0.137547C15.9642 -0.0213006 15.5631 -0.0294505 15.3616 0.120698C15.0714 0.336845 15.0215 0.457243 14.9999 0.993937L14.9798 1.49258H11.2569H7.53401L7.51682 0.996087C7.50274 0.589992 7.48079 0.474543 7.39625 0.361695C7.14007 0.0196989 6.74413 -0.0940997 6.42375 0.0821481ZM6.02125 3.44416C6.02125 3.97345 6.091 4.1784 6.32879 4.34759C6.55194 4.50644 6.953 4.51459 7.15455 4.36445C7.44792 4.14595 7.49823 4.0243 7.51682 3.48906L7.53401 2.99256H11.2569H14.9798L14.9999 3.49121C15.0161 3.89335 15.0397 4.01605 15.1216 4.1256C15.471 4.59259 16.0762 4.60319 16.3811 4.14765C16.4802 3.99975 16.4949 3.91405 16.4949 3.48516V2.99256H18.0894C19.8954 2.99256 20.0291 3.01231 20.4455 3.34066C20.6122 3.47216 20.7414 3.63265 20.8371 3.8272C20.9765 4.11045 20.9804 4.1404 20.9956 5.05504L21.0111 5.99252H11.2572H1.50324L1.51968 5.05124C1.53597 4.11715 1.53727 4.1077 1.68736 3.8152C1.86115 3.47636 2.20834 3.18111 2.56344 3.07006C2.73688 3.01581 3.16209 2.99871 4.4051 2.99606L6.02125 2.99256V3.44416ZM21.0051 14.3655C21.0051 21.1253 21.0034 21.243 20.9045 21.5069C20.768 21.8708 20.5087 22.1581 20.1644 22.3268L19.8775 22.4673H11.2581H2.63861L2.41054 22.362C2.07714 22.2081 1.83434 21.9733 1.67593 21.6514L1.53612 21.3673L1.52289 14.4299L1.50966 7.49251H11.2574H21.0051V14.3655ZM4.03271 10.5853C3.66478 10.7121 3.34926 10.9881 3.18073 11.3305C3.04132 11.6138 3.03931 11.631 3.02428 12.6709C3.0104 13.6343 3.01791 13.7479 3.11238 13.9998C3.25144 14.3706 3.50877 14.6572 3.85516 14.8269L4.142 14.9674H5.26955C6.36823 14.9674 6.40326 14.9643 6.63814 14.8446C6.96969 14.6756 7.21379 14.4254 7.36874 14.0958C7.49708 13.8228 7.49958 13.7968 7.49958 12.7424C7.49958 11.6829 7.49768 11.6635 7.36713 11.3925C7.1512 10.9442 6.81564 10.6631 6.36237 10.5508C6.22481 10.5167 5.74643 10.4932 5.20976 10.4941C4.46132 10.4954 4.24453 10.5122 4.03271 10.5853ZM10.0469 10.5832C9.59251 10.7431 9.25264 11.0699 9.10421 11.4897C8.99225 11.8062 8.99496 13.6777 9.10781 14.0082C9.21681 14.3274 9.5656 14.7014 9.89103 14.8481C10.1435 14.962 10.2048 14.9674 11.233 14.9674C12.4797 14.9674 12.6433 14.9301 13.0466 14.5537C13.4404 14.1861 13.4881 13.9907 13.4881 12.7424C13.4881 11.5205 13.4399 11.312 13.0752 10.9557C12.6722 10.5622 12.5065 10.5193 11.3332 10.5048C10.4458 10.4938 10.2706 10.5045 10.0469 10.5832ZM16.119 10.5606C15.652 10.7122 15.3268 10.9945 15.1318 11.4175C15.0229 11.6537 15.0166 11.7266 15.0166 12.7424C15.0166 13.7993 15.0188 13.8221 15.148 14.0924C15.316 14.444 15.5467 14.6746 15.8935 14.8378C16.1641 14.9651 16.1894 14.9674 17.2716 14.9674H18.3741L18.6578 14.8284C19.0141 14.6539 19.2588 14.3863 19.3954 14.0221C19.4907 13.7681 19.5017 13.6352 19.5017 12.7424C19.5017 11.8673 19.4895 11.7136 19.4011 11.4779C19.2646 11.114 19.0053 10.8267 18.661 10.658C18.3777 10.5193 18.3612 10.5173 17.3468 10.5065C16.6129 10.4987 16.2623 10.5141 16.119 10.5606ZM6.02125 12.7424V13.4924H5.26955H4.51785V12.7424V11.9925H5.26955H6.02125V12.7424ZM11.9847 12.7424V13.4924H11.2581H10.5314V12.7424V11.9925H11.2581H11.9847V12.7424ZM17.9983 12.7424V13.4924H17.2466H16.4949V12.7424V11.9925H17.2466H17.9983V12.7424ZM4.03271 16.5852C3.66478 16.712 3.34926 16.988 3.18073 17.3304C3.04132 17.6137 3.03931 17.6309 3.02428 18.6708C3.0104 19.6343 3.01791 19.7478 3.11238 19.9998C3.25144 20.3705 3.50877 20.6571 3.85516 20.8268L4.142 20.9673H5.26955C6.36823 20.9673 6.40326 20.9642 6.63814 20.8445C6.96969 20.6755 7.21379 20.4253 7.36874 20.0957C7.49708 19.8227 7.49958 19.7968 7.49958 18.7424C7.49958 17.6828 7.49768 17.6634 7.36713 17.3924C7.1512 16.9441 6.81564 16.663 6.36237 16.5507C6.22481 16.5166 5.74643 16.4931 5.20976 16.494C4.46132 16.4953 4.24453 16.5121 4.03271 16.5852ZM10.0469 16.5831C9.59251 16.743 9.25264 17.0698 9.10421 17.4896C8.99225 17.8061 8.99496 19.6777 9.10781 20.0082C9.21681 20.3273 9.5656 20.7013 9.89103 20.848C10.1435 20.9619 10.2048 20.9673 11.233 20.9673C12.4797 20.9673 12.6433 20.93 13.0466 20.5536C13.4404 20.186 13.4881 19.9906 13.4881 18.7424C13.4881 17.5204 13.4399 17.3119 13.0752 16.9556C12.6722 16.5621 12.5065 16.5192 11.3332 16.5047C10.4458 16.4937 10.2706 16.5044 10.0469 16.5831ZM16.119 16.5605C15.652 16.7121 15.3268 16.9944 15.1318 17.4174C15.0229 17.6536 15.0166 17.7265 15.0166 18.7424C15.0166 19.7979 15.0189 19.8224 15.1475 20.0924C15.3044 20.4219 15.5555 20.68 15.88 20.8454C16.1124 20.9639 16.1503 20.9673 17.2466 20.9673H18.3741L18.6578 20.8283C19.0141 20.6538 19.2588 20.3862 19.3954 20.022C19.4907 19.7681 19.5017 19.6351 19.5017 18.7424C19.5017 17.8672 19.4895 17.7135 19.4011 17.4778C19.2646 17.1139 19.0053 16.8266 18.661 16.6579C18.3777 16.5192 18.3612 16.5172 17.3468 16.5064C16.6129 16.4986 16.2623 16.514 16.119 16.5605ZM6.02125 18.7424V19.4924H5.26955H4.51785V18.7424V17.9924H5.26955H6.02125V18.7424ZM11.9847 18.7424V19.4924H11.2581H10.5314V18.7424V17.9924H11.2581H11.9847V18.7424ZM17.9983 18.7424V19.4924H17.2466H16.4949V18.7424V17.9924H17.2466H17.9983V18.7424Z"/>
    </symbol>
    <symbol id="arrow" viewBox="0 0 23 15">
      <path fill-rule="evenodd" clip-rule="evenodd" d="M16.2453 0.298304L22.7028 6.77983C23.0991 7.17757 23.0991 7.82243 22.7028 8.22017L16.2452 14.7017C15.849 15.0994 15.2065 15.0994 14.8102 14.7017C14.414 14.304 14.414 13.6591 14.8102 13.2614L19.5356 8.51847L1.01471 8.51847C0.454299 8.51847 -8.06416e-08 8.06249 0 7.5C8.06416e-08 6.93751 0.454299 6.48153 1.01471 6.48153L19.5356 6.48153L14.8102 1.73864C14.414 1.3409 14.414 0.696042 14.8102 0.298304C15.2065 -0.0994347 15.849 -0.0994347 16.2453 0.298304Z"/>
    </symbol>
    <symbol id="close" viewBox="0 0 26 26">
      <rect x="0.68457" y="24.6316" width="34.2105" height="1.36842" transform="rotate(-45 0.68457 24.6316)" fill="#343434"/>
      <rect x="1.36816" y="0.684227" width="34.2105" height="1.36842" transform="rotate(45 1.36816 0.684227)" fill="#343434"/>
    </symbol>
    <symbol id="point" viewBox="0 0 7 30">
      <path d="M0 23.0232H6.97674V29.9999H0V23.0232Z"/>
      <path d="M0 0H7L5.6 20H1.4L0 0Z"/>
    </symbol>
    <symbol id="insta" viewBox="0 0 30 30">
      <path d="M22.0771 0H7.9229C3.48 0 0 3.48 0 7.9229V22.0771C0 26.52 3.48 30 7.9229 30H22.0771C26.52 30 30 26.52 30 22.0771V7.9229C30 3.48 26.519 0 22.0771 0ZM28.0645 22.0771C28.0645 25.4352 25.4342 28.0645 22.0771 28.0645H7.9229C4.56581 28.0645 1.93548 25.4342 1.93548 22.0771V7.9229C1.93548 4.56581 4.56581 1.93548 7.9229 1.93548H22.0771C25.4352 1.93548 28.0645 4.56581 28.0645 7.9229V22.0771Z"/>
      <path d="M24.4347 7.6596C24.1241 7.43218 23.7079 7.41283 23.376 7.60638C23.045 7.80089 22.3115 7.8967 21.7231 7.97412C21.6012 7.99057 21.4812 8.00605 21.365 8.02251C20.5415 7.33928 19.4896 6.95605 18.4047 6.95605C15.9612 6.95605 13.956 8.84702 13.8137 11.2257C11.5976 10.8522 9.56826 9.6967 8.1302 7.96057C7.91633 7.70122 7.58439 7.57444 7.24955 7.61799C6.91665 7.66444 6.63213 7.88025 6.49762 8.18799C6.43568 8.32928 5.89568 9.65799 5.89568 12.9444C5.89568 15.7906 8.14181 17.8819 9.68246 18.9822C8.62859 19.4612 7.41407 19.6373 6.26052 19.5096C5.80955 19.4612 5.38762 19.7264 5.23859 20.1512C5.08955 20.577 5.25407 21.0493 5.63536 21.2902C7.45471 22.438 9.55762 23.0448 11.7176 23.0448C18.6544 23.0448 22.8525 17.5954 23.0083 12.2225C23.2076 11.9332 23.5879 11.3699 24.2305 10.3819C24.4879 9.98412 24.7037 9.1267 24.8092 8.65154C24.8934 8.27605 24.7454 7.88605 24.4347 7.6596ZM21.2625 11.3428C21.1434 11.5073 21.0786 11.7067 21.0786 11.9099C21.0786 15.7296 18.1744 21.1093 11.7186 21.1093C11.135 21.1093 10.5563 21.0561 9.98923 20.9515C10.746 20.6651 11.4612 20.2654 12.1183 19.7593C12.3815 19.557 12.5218 19.2319 12.4908 18.9019C12.4599 18.5719 12.2615 18.2796 11.9644 18.1296C11.9228 18.1083 7.83213 15.957 7.83213 12.9454C7.83213 11.9361 7.88633 11.1425 7.95794 10.5386C9.85762 12.1741 12.275 13.1525 14.8192 13.2783C14.8386 13.2793 14.8589 13.2802 14.8773 13.2793C15.4405 13.2628 15.8547 12.8496 15.8547 12.3115C15.8547 12.178 15.8276 12.0512 15.7783 11.9351C15.7541 11.7899 15.7415 11.6438 15.7415 11.4977C15.7415 10.0606 16.9357 8.89154 18.4047 8.89154C19.1421 8.89154 19.8515 9.19347 20.3518 9.71896C20.5802 9.95702 20.9141 10.0644 21.2363 10.0015C21.456 9.95993 21.7096 9.92702 21.9757 9.89218C22.0705 9.8796 22.1663 9.86702 22.2641 9.85347C21.5373 10.9606 21.275 11.3254 21.2625 11.3428Z"/>
    </symbol>
    <symbol id="facebook" viewBox="0 0 30 30">
      <path d="M22.0771 0H7.9229C3.48 0 0 3.48 0 7.9229V22.0771C0 26.52 3.48 30 7.9229 30H22.0771C26.52 30 30 26.52 30 22.0771V7.9229C30 3.48 26.519 0 22.0771 0ZM28.0645 22.0771C28.0645 25.4352 25.4342 28.0645 22.0771 28.0645H7.9229C4.56581 28.0645 1.93548 25.4342 1.93548 22.0771V7.9229C1.93548 4.56581 4.56581 1.93548 7.9229 1.93548H22.0771C25.4352 1.93548 28.0645 4.56581 28.0645 7.9229V22.0771Z"/>
      <path fill-rule="evenodd" clip-rule="evenodd" d="M16.125 7.59759C15.449 7.73619 15.149 7.88329 14.697 8.29802C14.0083 8.92981 13.7847 9.59456 13.7348 11.1579L13.6922 12.4906H12.4711H11.25V13.7418V14.993H12.4821H13.7143V18.7465V22.5H14.9464H16.1786V18.7465V14.993H17.285H18.3915L18.5235 13.9322C18.5961 13.3488 18.68 12.7858 18.71 12.681C18.7597 12.5072 18.6522 12.4906 17.4715 12.4906H16.1786V11.6692C16.1786 10.2778 16.4858 9.9883 17.9624 9.9883H18.75V8.80698V7.62577L18.0914 7.55581C17.2819 7.46997 16.6863 7.48259 16.125 7.59759Z"/>
    </symbol>
</svg>